{"title":"Dracula Untold 2014 720p HDRip HC NEW SOURCE x264 Pimp4003","uid":11466908,"size":1803610499,"categoryP":"video","categoryS":"hd___movies","magnet":"?xt=urn:btih:e5967ec4c1879f0a8c66b0cd1c624d1c8e5ace8c&amp;dn=Dracula+Untold+2014+720p+HDRip+HC+NEW+SOURCE+x264+Pimp4003&amp;tr=udp%3A%2F%2Ftracker.openbittorrent.com%3A80&amp;tr=udp%3A%2F%2Fopen.demonii.com%3A1337&amp;tr=udp%3A%2F%2Ftracker.coppersurfer.tk%3A6969&amp;tr=udp%3A%2F%2Fexodus.desync.com%3A6969","seeders":26,"leechers":0,"uploader":"shawnmurthy","files":-1,"time":1416041107,"description":"Dracula Untold 2014 720p HDRip HC NEW SOURCE x264 Pimp4003\n\nENJOY\n\nPIMP4003\n\nVideo\nID                                       : 1\nFormat                                   : MPEG-4 Visual\nFormat profile                           : Simple@L3\nFormat settings, BVOP                    : No\nFormat settings, QPel                    : No\nFormat settings, GMC                     : No warppoints\nFormat settings, Matrix                  : Default (H.263)\nCodec ID                                 : 20\nDuration                                 : 1h 32mn\nBit rate                                 : 2 471 Kbps\nWidth                                    : 1 280 pixels\nHeight                                   : 536 pixels\nDisplay aspect ratio                     : 2.40:1\nFrame rate mode                          : Variable\nFrame rate                               : 59.940 fps\nMinimum frame rate                       : 59.916 fps\nMaximum frame rate                       : 60.157 fps\nColor space                              : YUV\nChroma subsampling                       : 4:2:0\nBit depth                                : 8 bits\nScan type                                : Progressive\nCompression mode                         : Lossy\nBits/(Pixel*Frame)                       : 0.060\nStream size                              : 1.59 GiB (95%)\nWriting library                          : ZJMedia MPEG Encoder\n\nAudio\nID                                       : 2\nFormat                                   : AAC\nFormat/Info                              : Advanced Audio Codec\nFormat profile                           : LC\nCodec ID                                 : 40\nDuration                                 : 1h 32mn\nBit rate mode                            : Variable\nBit rate                                 : 128 Kbps\nChannel(s)                               : 2 channels\nChannel positions                        : Front: L R\nSampling rate                            : 48.0 KHz\nCompression mode                         : Lossy\nStream size                              : 84.5 MiB (5%)","torrent":{"xt":"urn:btih:e5967ec4c1879f0a8c66b0cd1c624d1c8e5ace8c","amp;dn":"Dracula+Untold+2014+720p+HDRip+HC+NEW+SOURCE+x264+Pimp4003","amp;tr":["udp%3A%2F%2Ftracker.openbittorrent.com%3A80","udp%3A%2F%2Fopen.demonii.com%3A1337","udp%3A%2F%2Ftracker.coppersurfer.tk%3A6969","udp%3A%2F%2Fexodus.desync.com%3A6969"],"infoHash":"e5967ec4c1879f0a8c66b0cd1c624d1c8e5ace8c","infoHashBuffer":{"type":"Buffer","data":[229,150,126,196,193,135,159,10,140,102,176,205,28,98,77,28,142,90,206,140]},"announce":[],"urlList":[]}}